<svg width="20" height="20" viewBox="0 0 34 34" fill="none" xmlns="http://www.w3.org/2000/svg">
<path d="M16.6667 16.6667C14.375 16.6667 12.4132 15.8507 10.7813 14.2188C9.14931 12.5868 8.33333 10.625 8.33333 8.33333C8.33333 6.04167 9.14931 4.07986 10.7813 2.44792C12.4132 0.815972 14.375 0 16.6667 0C18.9583 0 20.9201 0.815972 22.5521 2.44792C24.184 4.07986 25 6.04167 25 8.33333C25 10.625 24.184 12.5868 22.5521 14.2188C20.9201 15.8507 18.9583 16.6667 16.6667 16.6667ZM0 33.3333V27.5C0 26.3194 0.303819 25.2344 0.911458 24.2448C1.5191 23.2552 2.32639 22.5 3.33333 21.9792C5.48611 20.9028 7.67361 20.0955 9.89583 19.5573C12.1181 19.0191 14.375 18.75 16.6667 18.75C18.9583 18.75 21.2153 19.0191 23.4375 19.5573C25.6597 20.0955 27.8472 20.9028 30 21.9792C31.0069 22.5 31.8142 23.2552 32.4219 24.2448C33.0295 25.2344 33.3333 26.3194 33.3333 27.5V33.3333H0ZM4.16667 29.1667H29.1667V27.5C29.1667 27.1181 29.0712 26.7708 28.8802 26.4583C28.6892 26.1458 28.4375 25.9028 28.125 25.7292C26.25 24.7917 24.3576 24.0885 22.4479 23.6198C20.5382 23.151 18.6111 22.9167 16.6667 22.9167C14.7222 22.9167 12.7951 23.151 10.8854 23.6198C8.97569 24.0885 7.08333 24.7917 5.20833 25.7292C4.89583 25.9028 4.6441 26.1458 4.45312 26.4583C4.26215 26.7708 4.16667 27.1181 4.16667 27.5V29.1667ZM16.6667 12.5C17.8125 12.5 18.7934 12.092 19.6094 11.276C20.4253 10.4601 20.8333 9.47917 20.8333 8.33333C20.8333 7.1875 20.4253 6.2066 19.6094 5.39063C18.7934 4.57465 17.8125 4.16667 16.6667 4.16667C15.5208 4.16667 14.5399 4.57465 13.724 5.39063C12.908 6.2066 12.5 7.1875 12.5 8.33333C12.5 9.47917 12.908 10.4601 13.724 11.276C14.5399 12.092 15.5208 12.5 16.6667 12.5Z" fill="white"/>
</svg>
