<svg width="58" height="58" viewBox="0 0 58 58" fill="none" xmlns="http://www.w3.org/2000/svg">
<g clip-path="url(#clip0_13_54)" filter="url(#filter0_d_13_54)">
<path d="M26.2051 2C25.968 2.00013 25.7388 2.08444 25.5581 2.2379C25.3775 2.39136 25.2572 2.604 25.2188 2.83789L24.2461 8.79297C23.0765 9.1332 21.9612 9.59227 20.9102 10.1641L15.9961 6.6543C15.8037 6.51691 15.5689 6.45213 15.3332 6.47143C15.0976 6.49074 14.8764 6.59289 14.709 6.75977L10.8184 10.6465C10.6521 10.8129 10.5498 11.0325 10.5294 11.2668C10.5091 11.5012 10.572 11.7352 10.707 11.9277L14.1641 16.873C13.5835 17.9303 13.1142 19.0518 12.7656 20.2324L6.83594 21.2188C6.60276 21.258 6.39104 21.3787 6.23836 21.5592C6.08569 21.7398 6.00193 21.9686 6.00195 22.2051V27.7051C6.00153 27.9401 6.08391 28.1678 6.23463 28.3482C6.38535 28.5286 6.59479 28.6501 6.82617 28.6914L12.7598 29.7422C13.1065 30.9207 13.5727 32.0431 14.1543 33.1016L10.6543 37.998C10.5169 38.1904 10.4521 38.4253 10.4714 38.6609C10.4907 38.8965 10.5929 39.1177 10.7598 39.2852L14.6484 43.1758C14.8145 43.3418 15.0336 43.4442 15.2675 43.4649C15.5014 43.4856 15.7351 43.4234 15.9277 43.2891L20.8828 39.8203C21.937 40.3955 23.055 40.8579 24.2285 41.2012L25.2188 47.1641C25.2576 47.3976 25.3781 47.6098 25.5587 47.7628C25.7393 47.9159 25.9683 48 26.2051 48H31.7051C31.9404 48.0003 32.1683 47.9177 32.3487 47.7666C32.5291 47.6155 32.6505 47.4056 32.6914 47.1738L33.752 41.1875C34.9206 40.839 36.0334 40.3697 37.082 39.791L42.0703 43.291C42.2629 43.4261 42.4969 43.489 42.7312 43.4686C42.9655 43.4482 43.1852 43.3459 43.3516 43.1797L47.2402 39.2871C47.4078 39.1192 47.5102 38.8971 47.5292 38.6606C47.5482 38.4241 47.4824 38.1886 47.3438 37.9961L43.7871 33.0586C44.3558 32.015 44.8139 30.9089 45.1543 29.748L51.1719 28.6934C51.4036 28.6524 51.6135 28.5311 51.7646 28.3507C51.9157 28.1703 51.9984 27.9424 51.998 27.707V22.207C51.9979 21.97 51.9136 21.7407 51.7601 21.5601C51.6067 21.3794 51.3941 21.2591 51.1602 21.2207L45.1523 20.2383C44.8097 19.0788 44.3503 17.9747 43.7812 16.9316L47.2891 11.9336C47.4241 11.741 47.487 11.507 47.4667 11.2727C47.4463 11.0384 47.344 10.8187 47.1777 10.6523L43.2871 6.76367C43.1192 6.59609 42.8971 6.49367 42.6606 6.47471C42.4241 6.45574 42.1886 6.52147 41.9961 6.66016L37.0723 10.2012C36.0232 9.62481 34.9097 9.15799 33.7383 8.8125L32.6914 2.82813C32.6509 2.59602 32.5297 2.38567 32.3493 2.23417C32.1688 2.08267 31.9407 1.99974 31.7051 2H26.2051ZM27.0566 4H30.8652L31.8613 9.68555C31.8945 9.87624 31.9822 10.0532 32.114 10.195C32.2457 10.3368 32.4158 10.4373 32.6035 10.4844C34.066 10.8488 35.4396 11.4265 36.6934 12.1855C36.861 12.2871 37.0548 12.3372 37.2506 12.3295C37.4464 12.3219 37.6357 12.2569 37.7949 12.1426L42.4746 8.7793L45.168 11.4727L41.8359 16.2207C41.7247 16.3791 41.6617 16.5664 41.6548 16.7598C41.6479 16.9533 41.6972 17.1446 41.7969 17.3105C42.5484 18.5615 43.1183 19.9264 43.4824 21.3809C43.5298 21.5703 43.6317 21.7417 43.7754 21.8739C43.919 22.0062 44.0983 22.0935 44.291 22.125L49.998 23.0586V26.8672L44.2793 27.8711C44.0885 27.9049 43.9116 27.9934 43.7701 28.1258C43.6286 28.2583 43.5287 28.429 43.4824 28.6172C43.1225 30.0698 42.5522 31.4347 41.8008 32.6855C41.6999 32.8531 41.6504 33.0466 41.6584 33.2421C41.6664 33.4375 41.7315 33.6263 41.8457 33.7852L45.2246 38.4746L42.5312 41.1699L37.791 37.8438C37.6318 37.7323 37.4436 37.6696 37.2494 37.6633C37.0551 37.6571 36.8633 37.7076 36.6973 37.8086C35.4498 38.5676 34.0748 39.148 32.6172 39.5176C32.4303 39.5647 32.2611 39.6648 32.1297 39.8058C31.9984 39.9468 31.9106 40.1228 31.877 40.3125L30.8672 46H27.0527L26.1113 40.3379C26.0793 40.1453 25.9916 39.9663 25.859 39.8229C25.7264 39.6796 25.5548 39.5782 25.3652 39.5312C23.9019 39.1706 22.5221 38.5937 21.2598 37.8359C21.094 37.7367 20.9031 37.6876 20.71 37.6945C20.517 37.7014 20.3301 37.7641 20.1719 37.875L15.4688 41.1699L12.7734 38.4707L16.0977 33.8242C16.2113 33.665 16.2757 33.476 16.283 33.2806C16.2903 33.0851 16.2401 32.8918 16.1387 32.7246C15.3727 31.4589 14.7933 30.0792 14.4277 28.6094C14.381 28.4222 14.281 28.2525 14.14 28.1208C13.9989 27.9891 13.8228 27.901 13.6328 27.8672L8.00195 26.8672V23.0527L13.6289 22.1172C13.8213 22.0853 14.0001 21.9979 14.1434 21.8656C14.2867 21.7334 14.3883 21.5622 14.4355 21.373C14.8043 19.8981 15.3833 18.5187 16.1465 17.2559C16.2471 17.0901 16.2974 16.8986 16.2911 16.7047C16.2849 16.5109 16.2224 16.323 16.1113 16.1641L12.8262 11.4688L15.5234 8.77344L20.1855 12.1055C20.3442 12.2186 20.5323 12.2829 20.727 12.2905C20.9216 12.2981 21.1143 12.2488 21.2813 12.1484C22.5369 11.3943 23.9199 10.8221 25.3848 10.4629C25.5752 10.416 25.7476 10.3142 25.8806 10.1701C26.0136 10.0259 26.1013 9.84591 26.1328 9.65234L27.0566 4ZM29 17C24.5936 17 21 20.5936 21 25C21 29.4064 24.5936 33 29 33C33.4064 33 37 29.4064 37 25C37 20.5936 33.4064 17 29 17ZM29 19C32.3256 19 35 21.6744 35 25C35 28.3256 32.3256 31 29 31C25.6744 31 23 28.3256 23 25C23 21.6744 25.6744 19 29 19Z" fill="white"/>
</g>
<defs>
<filter id="filter0_d_13_54" x="0" y="0" width="58" height="58" filterUnits="userSpaceOnUse" color-interpolation-filters="sRGB">
<feFlood flood-opacity="0" result="BackgroundImageFix"/>
<feColorMatrix in="SourceAlpha" type="matrix" values="0 0 0 0 0 0 0 0 0 0 0 0 0 0 0 0 0 0 127 0" result="hardAlpha"/>
<feOffset dy="4"/>
<feGaussianBlur stdDeviation="2"/>
<feComposite in2="hardAlpha" operator="out"/>
<feColorMatrix type="matrix" values="0 0 0 0 0 0 0 0 0 0 0 0 0 0 0 0 0 0 0.25 0"/>
<feBlend mode="normal" in2="BackgroundImageFix" result="effect1_dropShadow_13_54"/>
<feBlend mode="normal" in="SourceGraphic" in2="effect1_dropShadow_13_54" result="shape"/>
</filter>
<clipPath id="clip0_13_54">
<rect width="50" height="50" fill="white" transform="translate(4)"/>
</clipPath>
</defs>
</svg>
